<?xml version="1.0" encoding="UTF-8" standalone="no"?><svg xmlns="http://www.w3.org/2000/svg" xmlns:xlink="http://www.w3.org/1999/xlink" contentScriptType="application/ecmascript" contentStyleType="text/css" height="246px" preserveAspectRatio="none" style="width:410px;height:246px;" version="1.1" viewBox="0 0 410 246" width="410px" zoomAndPan="magnify"><defs><filter height="300%" id="f1vcvwm7ga91j2" width="300%" x="-1" y="-1"><feGaussianBlur result="blurOut" stdDeviation="2.0"/><feColorMatrix in="blurOut" result="blurOut2" type="matrix" values="0 0 0 0 0 0 0 0 0 0 0 0 0 0 0 0 0 0 .4 0"/><feOffset dx="4.0" dy="4.0" in="blurOut2" result="blurOut3"/><feBlend in="SourceGraphic" in2="blurOut3" mode="normal"/></filter></defs><g><!--cluster net.dummy--><polygon fill="#DDDDDD" filter="url(#f1vcvwm7ga91j2)" points="22,24,109,24,116,49.0679,132,49.0679,132,234,22,234,22,24" style="stroke: #000000; stroke-width: 1.5;"/><line style="stroke: #000000; stroke-width: 1.5;" x1="22" x2="116" y1="49.0679" y2="49.0679"/><text fill="#000000" font-family="sans-serif" font-size="14" font-weight="bold" lengthAdjust="spacingAndGlyphs" textLength="81" x="26" y="40.9659">net.dummy</text><!--cluster net.foo--><polygon fill="#FFFFFF" filter="url(#f1vcvwm7ga91j2)" points="156,132,212,132,219,157.0679,260,157.0679,260,234,156,234,156,132" style="stroke: #000000; stroke-width: 1.5;"/><line style="stroke: #000000; stroke-width: 1.5;" x1="156" x2="219" y1="157.0679" y2="157.0679"/><text fill="#000000" font-family="sans-serif" font-size="14" font-weight="bold" lengthAdjust="spacingAndGlyphs" textLength="50" x="160" y="148.9659">net.foo</text><!--cluster net.unused--><polygon fill="#FFFFFF" filter="url(#f1vcvwm7ga91j2)" points="284,132,368,132,375,157.0679,388,157.0679,388,234,284,234,284,132" style="stroke: #000000; stroke-width: 1.5;"/><line style="stroke: #000000; stroke-width: 1.5;" x1="284" x2="375" y1="157.0679" y2="157.0679"/><text fill="#000000" font-family="sans-serif" font-size="14" font-weight="bold" lengthAdjust="spacingAndGlyphs" textLength="78" x="288" y="148.9659">net.unused</text><!--class net.dummy.Person--><rect fill="#FEFECE" filter="url(#f1vcvwm7ga91j2)" height="48" id="net.dummy.Person" style="stroke: #A80036; stroke-width: 1.5;" width="71" x="44.5" y="170"/><ellipse cx="59.5" cy="186" fill="#ADD1B2" rx="11" ry="11" style="stroke: #A80036; stroke-width: 1.0;"/><path d="M63.0156,190.0313 L63.0156,192.0625 Q61.5313,192.6719 59.7031,192.6719 Q56.9844,192.6719 55.5313,190.9375 Q54.0781,189.1875 54.0781,186.0781 Q54.0781,183.0781 55.6563,181.2969 Q57.2344,179.5 59.9531,179.5 Q61.8594,179.5 63.5938,180.4219 L62.6406,182.3281 Q61.1406,181.5469 59.9531,181.5469 Q58.3438,181.5469 57.3594,182.7656 Q56.3906,183.9688 56.3906,186.0938 Q56.3906,188.3438 57.2969,189.4844 Q58.2188,190.625 59.9531,190.625 Q60.9844,190.625 63.0156,190.0313 Z "/><text fill="#000000" font-family="sans-serif" font-size="12" lengthAdjust="spacingAndGlyphs" textLength="39" x="73.5" y="190.656">Person</text><line style="stroke: #A80036; stroke-width: 1.5;" x1="45.5" x2="114.5" y1="202" y2="202"/><line style="stroke: #A80036; stroke-width: 1.5;" x1="45.5" x2="114.5" y1="210" y2="210"/><!--class net.dummy.Meeting--><rect fill="#FEFECE" filter="url(#f1vcvwm7ga91j2)" height="48" id="net.dummy.Meeting" style="stroke: #A80036; stroke-width: 1.5;" width="78" x="38" y="62"/><ellipse cx="53" cy="78" fill="#ADD1B2" rx="11" ry="11" style="stroke: #A80036; stroke-width: 1.0;"/><path d="M56.5156,82.0313 L56.5156,84.0625 Q55.0313,84.6719 53.2031,84.6719 Q50.4844,84.6719 49.0313,82.9375 Q47.5781,81.1875 47.5781,78.0781 Q47.5781,75.0781 49.1563,73.2969 Q50.7344,71.5 53.4531,71.5 Q55.3594,71.5 57.0938,72.4219 L56.1406,74.3281 Q54.6406,73.5469 53.4531,73.5469 Q51.8438,73.5469 50.8594,74.7656 Q49.8906,75.9688 49.8906,78.0938 Q49.8906,80.3438 50.7969,81.4844 Q51.7188,82.625 53.4531,82.625 Q54.4844,82.625 56.5156,82.0313 Z "/><text fill="#000000" font-family="sans-serif" font-size="12" lengthAdjust="spacingAndGlyphs" textLength="46" x="67" y="82.656">Meeting</text><line style="stroke: #A80036; stroke-width: 1.5;" x1="39" x2="115" y1="94" y2="94"/><line style="stroke: #A80036; stroke-width: 1.5;" x1="39" x2="115" y1="102" y2="102"/><!--class net.foo.Person--><rect fill="#FEFECE" filter="url(#f1vcvwm7ga91j2)" height="48" id="net.foo.Person" style="stroke: #A80036; stroke-width: 1.5;" width="71" x="172.5" y="170"/><ellipse cx="187.5" cy="186" fill="#ADD1B2" rx="11" ry="11" style="stroke: #A80036; stroke-width: 1.0;"/><path d="M191.0156,190.0313 L191.0156,192.0625 Q189.5313,192.6719 187.7031,192.6719 Q184.9844,192.6719 183.5313,190.9375 Q182.0781,189.1875 182.0781,186.0781 Q182.0781,183.0781 183.6563,181.2969 Q185.2344,179.5 187.9531,179.5 Q189.8594,179.5 191.5938,180.4219 L190.6406,182.3281 Q189.1406,181.5469 187.9531,181.5469 Q186.3438,181.5469 185.3594,182.7656 Q184.3906,183.9688 184.3906,186.0938 Q184.3906,188.3438 185.2969,189.4844 Q186.2188,190.625 187.9531,190.625 Q188.9844,190.625 191.0156,190.0313 Z "/><text fill="#000000" font-family="sans-serif" font-size="12" lengthAdjust="spacingAndGlyphs" textLength="39" x="201.5" y="190.656">Person</text><line style="stroke: #A80036; stroke-width: 1.5;" x1="173.5" x2="242.5" y1="202" y2="202"/><line style="stroke: #A80036; stroke-width: 1.5;" x1="173.5" x2="242.5" y1="210" y2="210"/><!--class net.unused.Person--><rect fill="#FEFECE" filter="url(#f1vcvwm7ga91j2)" height="48" id="net.unused.Person" style="stroke: #A80036; stroke-width: 1.5;" width="71" x="300.5" y="170"/><ellipse cx="315.5" cy="186" fill="#ADD1B2" rx="11" ry="11" style="stroke: #A80036; stroke-width: 1.0;"/><path d="M319.0156,190.0313 L319.0156,192.0625 Q317.5313,192.6719 315.7031,192.6719 Q312.9844,192.6719 311.5313,190.9375 Q310.0781,189.1875 310.0781,186.0781 Q310.0781,183.0781 311.6563,181.2969 Q313.2344,179.5 315.9531,179.5 Q317.8594,179.5 319.5938,180.4219 L318.6406,182.3281 Q317.1406,181.5469 315.9531,181.5469 Q314.3438,181.5469 313.3594,182.7656 Q312.3906,183.9688 312.3906,186.0938 Q312.3906,188.3438 313.2969,189.4844 Q314.2188,190.625 315.9531,190.625 Q316.9844,190.625 319.0156,190.0313 Z "/><text fill="#000000" font-family="sans-serif" font-size="12" lengthAdjust="spacingAndGlyphs" textLength="39" x="329.5" y="190.656">Person</text><line style="stroke: #A80036; stroke-width: 1.5;" x1="301.5" x2="370.5" y1="202" y2="202"/><line style="stroke: #A80036; stroke-width: 1.5;" x1="301.5" x2="370.5" y1="210" y2="210"/><!--class BaseClass--><rect fill="#FEFECE" filter="url(#f1vcvwm7ga91j2)" height="48" id="BaseClass" style="stroke: #A80036; stroke-width: 1.5;" width="90" x="157" y="62"/><ellipse cx="172" cy="78" fill="#ADD1B2" rx="11" ry="11" style="stroke: #A80036; stroke-width: 1.0;"/><path d="M175.5156,82.0313 L175.5156,84.0625 Q174.0313,84.6719 172.2031,84.6719 Q169.4844,84.6719 168.0313,82.9375 Q166.5781,81.1875 166.5781,78.0781 Q166.5781,75.0781 168.1563,73.2969 Q169.7344,71.5 172.4531,71.5 Q174.3594,71.5 176.0938,72.4219 L175.1406,74.3281 Q173.6406,73.5469 172.4531,73.5469 Q170.8438,73.5469 169.8594,74.7656 Q168.8906,75.9688 168.8906,78.0938 Q168.8906,80.3438 169.7969,81.4844 Q170.7188,82.625 172.4531,82.625 Q173.4844,82.625 175.5156,82.0313 Z "/><text fill="#000000" font-family="sans-serif" font-size="12" lengthAdjust="spacingAndGlyphs" textLength="58" x="186" y="82.656">BaseClass</text><line style="stroke: #A80036; stroke-width: 1.5;" x1="158" x2="246" y1="94" y2="94"/><line style="stroke: #A80036; stroke-width: 1.5;" x1="158" x2="246" y1="102" y2="102"/><!--link BaseClass to net.dummy.Person--><path d="M157,123.15 C156.66,123.43 156.33,123.72 156,124 C138.52,138.94 119.36,156.34 104.65,169.93 " fill="none" id="BaseClass-net.dummy.Person" style="stroke: #A80036; stroke-width: 1.0;"/><polygon fill="none" points="152.72,117.6,172.58,110.23,161.65,128.38,152.72,117.6" style="stroke: #A80036; stroke-width: 1.0;"/><!--link net.dummy.Meeting to net.dummy.Person--><path d="M78.03,123.34 C78.46,138.68 78.96,156.1 79.34,169.68 " fill="none" id="net.dummy.Meeting-net.dummy.Person" style="stroke: #A80036; stroke-width: 1.0;"/><polygon fill="#FFFFFF" points="77.65,110,73.8163,116.1076,77.9795,121.9955,81.8133,115.8879,77.65,110" style="stroke: #A80036; stroke-width: 1.0;"/><!--link BaseClass to net.dummy.Meeting--><path d="M136.37,86 C129.6,86 122.83,86 116.06,86 " fill="none" id="BaseClass-net.dummy.Meeting" style="stroke: #A80036; stroke-width: 1.0;"/><polygon fill="none" points="136.68,79,156.68,86,136.68,93,136.68,79" style="stroke: #A80036; stroke-width: 1.0;"/><!--link net.dummy.Person to net.foo.Person--><path d="M136.28,194 C148.33,194 160.37,194 172.42,194 " fill="none" id="net.dummy.Person-net.foo.Person" style="stroke: #A80036; stroke-width: 1.0;"/><polygon fill="none" points="136,201,116,194,136,187,136,201" style="stroke: #A80036; stroke-width: 1.0;"/><!--link BaseClass to net.foo.Person--><path d="M204.44,130.02 C205.2,143.58 206.02,158.04 206.68,169.68 " fill="none" id="BaseClass-net.foo.Person" style="stroke: #A80036; stroke-width: 1.0;"/><polygon fill="none" points="197.44,130.36,203.3,110,211.42,129.57,197.44,130.36" style="stroke: #A80036; stroke-width: 1.0;"/><!--link net.dummy.Meeting to net.foo.Person--><path d="M123.88,117.85 C126.66,119.89 129.38,121.95 132,124 C150.24,138.29 169.55,155.86 184.14,169.69 " fill="none" id="net.dummy.Meeting-net.foo.Person" style="stroke: #A80036; stroke-width: 1.0;"/><polygon fill="#FFFFFF" points="113.04,110.15,115.6155,116.8855,122.8235,117.0986,120.248,110.3632,113.04,110.15" style="stroke: #A80036; stroke-width: 1.0;"/><!--link BaseClass to net.unused.Person--><path d="M257.07,121.79 C258.06,122.53 259.04,123.26 260,124 C278.55,138.17 298.02,155.91 312.6,169.85 " fill="none" id="BaseClass-net.unused.Person" style="stroke: #A80036; stroke-width: 1.0;"/><polygon fill="none" points="252.8,127.35,240.38,110.18,260.8,115.86,252.8,127.35" style="stroke: #A80036; stroke-width: 1.0;"/><!--
@startuml
page 2x2
skinparam pageMargin 10
skinparam pageExternalColor gray
skinparam pageBorderColor black

class BaseClass

namespace net.dummy #DDDDDD {
	.BaseClass <|- - Person
	Meeting o- - Person
	
	.BaseClass <|- Meeting

}

namespace net.foo {
  net.dummy.Person  <|- Person
  .BaseClass <|- - Person

  net.dummy.Meeting o- - Person
}

BaseClass <|- - net.unused.Person
@enduml

PlantUML version 1.2019.06(Fri May 24 19:10:25 CEST 2019)
(GPL source distribution)
Java Runtime: OpenJDK Runtime Environment
JVM: OpenJDK 64-Bit Server VM
Java Version: 1.8.0_242-b08
Operating System: Linux
OS Version: 5.4.18-1-MANJARO
Default Encoding: UTF-8
Language: pl
Country: PL
--></g></svg>