<?xml version="1.0" encoding="UTF-8" standalone="no"?><svg xmlns="http://www.w3.org/2000/svg" xmlns:xlink="http://www.w3.org/1999/xlink" contentScriptType="application/ecmascript" contentStyleType="text/css" height="294px" preserveAspectRatio="none" style="width:373px;height:294px;" version="1.1" viewBox="0 0 373 294" width="373px" zoomAndPan="magnify"><defs><filter height="300%" id="fxqeluwxp9uvd" width="300%" x="-1" y="-1"><feGaussianBlur result="blurOut" stdDeviation="2.0"/><feColorMatrix in="blurOut" result="blurOut2" type="matrix" values="0 0 0 0 0 0 0 0 0 0 0 0 0 0 0 0 0 0 .4 0"/><feOffset dx="4.0" dy="4.0" in="blurOut2" result="blurOut3"/><feBlend in="SourceGraphic" in2="blurOut3" mode="normal"/></filter></defs><g><rect fill="#FFFFFF" filter="url(#fxqeluwxp9uvd)" height="158.5301" style="stroke: #A80036; stroke-width: 1.0;" width="10" x="100.5" y="74.7739"/><rect fill="#FFFFFF" filter="url(#fxqeluwxp9uvd)" height="95.118" style="stroke: #A80036; stroke-width: 1.0;" width="10" x="249.5" y="106.4799"/><rect fill="#FFFFFF" filter="url(#fxqeluwxp9uvd)" height="31.706" style="stroke: #A80036; stroke-width: 1.0;" width="10" x="347.5" y="138.186"/><line style="stroke: #A80036; stroke-width: 1.0; stroke-dasharray: 5.0,5.0;" x1="32" x2="32" y1="41.0679" y2="251.304"/><line style="stroke: #A80036; stroke-width: 1.0; stroke-dasharray: 5.0,5.0;" x1="105" x2="105" y1="41.0679" y2="251.304"/><line style="stroke: #A80036; stroke-width: 1.0; stroke-dasharray: 5.0,5.0;" x1="254" x2="254" y1="41.0679" y2="251.304"/><line style="stroke: #A80036; stroke-width: 1.0; stroke-dasharray: 5.0,5.0;" x1="352" x2="352" y1="41.0679" y2="251.304"/><rect fill="#FEFECE" filter="url(#fxqeluwxp9uvd)" height="33.0679" style="stroke: #A80036; stroke-width: 1.5;" width="45" x="8" y="3"/><text fill="#000000" font-family="sans-serif" font-size="14" lengthAdjust="spacingAndGlyphs" textLength="31" x="15" y="24.9659">User</text><rect fill="#FEFECE" filter="url(#fxqeluwxp9uvd)" height="33.0679" style="stroke: #A80036; stroke-width: 1.5;" width="45" x="8" y="250.304"/><text fill="#000000" font-family="sans-serif" font-size="14" lengthAdjust="spacingAndGlyphs" textLength="31" x="15" y="272.27">User</text><rect fill="#FEFECE" filter="url(#fxqeluwxp9uvd)" height="33.0679" style="stroke: #A80036; stroke-width: 1.5;" width="23" x="92" y="3"/><text fill="#000000" font-family="sans-serif" font-size="14" lengthAdjust="spacingAndGlyphs" textLength="9" x="99" y="24.9659">A</text><rect fill="#FEFECE" filter="url(#fxqeluwxp9uvd)" height="33.0679" style="stroke: #A80036; stroke-width: 1.5;" width="23" x="92" y="250.304"/><text fill="#000000" font-family="sans-serif" font-size="14" lengthAdjust="spacingAndGlyphs" textLength="9" x="99" y="272.27">A</text><rect fill="#FEFECE" filter="url(#fxqeluwxp9uvd)" height="33.0679" style="stroke: #A80036; stroke-width: 1.5;" width="23" x="241" y="3"/><text fill="#000000" font-family="sans-serif" font-size="14" lengthAdjust="spacingAndGlyphs" textLength="9" x="248" y="24.9659">B</text><rect fill="#FEFECE" filter="url(#fxqeluwxp9uvd)" height="33.0679" style="stroke: #A80036; stroke-width: 1.5;" width="23" x="241" y="250.304"/><text fill="#000000" font-family="sans-serif" font-size="14" lengthAdjust="spacingAndGlyphs" textLength="9" x="248" y="272.27">B</text><rect fill="#FEFECE" filter="url(#fxqeluwxp9uvd)" height="33.0679" style="stroke: #A80036; stroke-width: 1.5;" width="23" x="339" y="3"/><text fill="#000000" font-family="sans-serif" font-size="14" lengthAdjust="spacingAndGlyphs" textLength="9" x="346" y="24.9659">C</text><rect fill="#FEFECE" filter="url(#fxqeluwxp9uvd)" height="33.0679" style="stroke: #A80036; stroke-width: 1.5;" width="23" x="339" y="250.304"/><text fill="#000000" font-family="sans-serif" font-size="14" lengthAdjust="spacingAndGlyphs" textLength="9" x="346" y="272.27">C</text><rect fill="#FFFFFF" filter="url(#fxqeluwxp9uvd)" height="158.5301" style="stroke: #A80036; stroke-width: 1.0;" width="10" x="100.5" y="74.7739"/><rect fill="#FFFFFF" filter="url(#fxqeluwxp9uvd)" height="95.118" style="stroke: #A80036; stroke-width: 1.0;" width="10" x="249.5" y="106.4799"/><rect fill="#FFFFFF" filter="url(#fxqeluwxp9uvd)" height="31.706" style="stroke: #A80036; stroke-width: 1.0;" width="10" x="347.5" y="138.186"/><polygon fill="#A80036" points="88.5,70.7739,98.5,74.7739,88.5,78.7739,92.5,74.7739" style="stroke: #A80036; stroke-width: 1.0;"/><line style="stroke: #A80036; stroke-width: 1.0;" x1="32.5" x2="94.5" y1="74.7739" y2="74.7739"/><text fill="#000000" font-family="sans-serif" font-size="13" lengthAdjust="spacingAndGlyphs" textLength="49" x="39.5" y="68.9649">DoWork</text><polygon fill="#A80036" points="237.5,102.4799,247.5,106.4799,237.5,110.4799,241.5,106.4799" style="stroke: #A80036; stroke-width: 1.0;"/><line style="stroke: #A80036; stroke-width: 1.0;" x1="110.5" x2="243.5" y1="106.4799" y2="106.4799"/><text fill="#000000" font-family="sans-serif" font-size="13" lengthAdjust="spacingAndGlyphs" textLength="120" x="117.5" y="100.6709">&lt;&lt; createRequest &gt;&gt;</text><polygon fill="#A80036" points="335.5,134.186,345.5,138.186,335.5,142.186,339.5,138.186" style="stroke: #A80036; stroke-width: 1.0;"/><line style="stroke: #A80036; stroke-width: 1.0;" x1="259.5" x2="341.5" y1="138.186" y2="138.186"/><text fill="#000000" font-family="sans-serif" font-size="13" lengthAdjust="spacingAndGlyphs" textLength="49" x="266.5" y="132.377">DoWork</text><polygon fill="#A80036" points="270.5,165.892,260.5,169.892,270.5,173.892,266.5,169.892" style="stroke: #A80036; stroke-width: 1.0;"/><line style="stroke: #A80036; stroke-width: 1.0; stroke-dasharray: 2.0,2.0;" x1="264.5" x2="351.5" y1="169.892" y2="169.892"/><text fill="#000000" font-family="sans-serif" font-size="13" lengthAdjust="spacingAndGlyphs" textLength="64" x="276.5" y="164.083">WorkDone</text><line style="stroke: #A80036; stroke-width: 2.0;" x1="343.5" x2="361.5" y1="160.892" y2="178.892"/><line style="stroke: #A80036; stroke-width: 2.0;" x1="343.5" x2="361.5" y1="178.892" y2="160.892"/><polygon fill="#A80036" points="121.5,197.598,111.5,201.598,121.5,205.598,117.5,201.598" style="stroke: #A80036; stroke-width: 1.0;"/><line style="stroke: #A80036; stroke-width: 1.0; stroke-dasharray: 2.0,2.0;" x1="115.5" x2="253.5" y1="201.598" y2="201.598"/><text fill="#000000" font-family="sans-serif" font-size="13" lengthAdjust="spacingAndGlyphs" textLength="96" x="127.5" y="195.789">RequestCreated</text><polygon fill="#A80036" points="43.5,229.304,33.5,233.304,43.5,237.304,39.5,233.304" style="stroke: #A80036; stroke-width: 1.0;"/><line style="stroke: #A80036; stroke-width: 1.0;" x1="37.5" x2="104.5" y1="233.304" y2="233.304"/><text fill="#000000" font-family="sans-serif" font-size="13" lengthAdjust="spacingAndGlyphs" textLength="32" x="49.5" y="227.495">Done</text><!--
@startuml
participant User

User -> A: DoWork
activate A

A -> B: << createRequest >>
activate B

B -> C: DoWork
activate C
C - -> B: WorkDone
destroy C

B - -> A: RequestCreated
deactivate B

A -> User: Done
deactivate A

@enduml

PlantUML version 1.2019.06(Fri May 24 19:10:25 CEST 2019)
(GPL source distribution)
Java Runtime: OpenJDK Runtime Environment
JVM: OpenJDK 64-Bit Server VM
Java Version: 1.8.0_242-b08
Operating System: Linux
OS Version: 5.4.18-1-MANJARO
Default Encoding: UTF-8
Language: pl
Country: PL
--></g></svg>